<svg width="90" height="90" viewBox="0 0 90 90" fill="none" xmlns="http://www.w3.org/2000/svg">
<path d="M43.1207 18.6198C44.3412 18.2173 45.6588 18.2173 46.8793 18.6198L56.9101 21.928C57.6917 22.1858 58.4119 22.6016 59.0259 23.1496L66.9063 30.1824C67.8652 31.0381 68.5239 32.1791 68.7856 33.4374L70.936 43.7784C71.1035 44.5842 71.1035 45.4158 70.936 46.2216L68.7856 56.5626C68.5239 57.8209 67.8652 58.9619 66.9063 59.8176L59.0259 66.8504C58.4119 67.3984 57.6917 67.8142 56.9101 68.072L46.8793 71.3802C45.6588 71.7827 44.3412 71.7827 43.1207 71.3802L33.0899 68.072C32.3083 67.8142 31.5881 67.3984 30.9741 66.8504L23.0937 59.8176C22.1348 58.9619 21.4761 57.8209 21.2144 56.5626L19.064 46.2216C18.8965 45.4158 18.8965 44.5842 19.064 43.7784L21.2144 33.4374C21.4761 32.1791 22.1348 31.0381 23.0937 30.1824L30.9741 23.1496C31.5881 22.6016 32.3083 22.1858 33.0899 21.928L43.1207 18.6198Z" fill="#FBDC0E"/>
</svg>
